# xmcd
#
# Track frame offsets: 
#        150
#        9652
#        23717
#        31792
#        44842
#        55835
#        70557
#        84085
#        93772
#        108842
#        115845
#        136380
#        155020
#        164245
#        175517
#        189417
#        205624
#        220342
#        233777
#        250050
#        269887
#        284097
#        294987
#        309195
#        315708
#        328315
#        340210
#
# Disc length: 4787 seconds
#
# Revision: 1
# Processed by: cddbd v1.5.2PL0 Copyright (c) Steve Scherf et al.
# Submitted via: ExactAudioCopy v1.3
#
DISCID=8212b11b
DTITLE=Mance Lipscomb - Akella Presents - Greatest Bluesmen - vol. 05 
DTITLE=CD2
DYEAR=2017
DGENRE=Blues
TTITLE0=Sugar Babe (It's All Over Now)
TTITLE1=Going Down Slow
TTITLE2=Baby Please Don't Go
TTITLE3=Shake, Shake, Mama
TTITLE4=Mama Don't Allow
TTITLE5=Ain't It Hard
TTITLE6=Angel Child
TTITLE7=After Hours
TTITLE8=Black Gal
TTITLE9=Buck Dance
TTITLE10=Careless Love
TTITLE11=If I Miss The Train
TTITLE12=Spanish Flang Dang
TTITLE13=You Got To Reap What You Sow
TTITLE14=So Different Blues
TTITLE15=Silver City
TTITLE16=The Titanic
TTITLE17=Long Way To Tipperary
TTITLE18=Charlie James
TTITLE19=Hey Lawdy Mama
TTITLE20=Trouble In Mind
TTITLE21=Knock Down Windows
TTITLE22=Big Boss Man
TTITLE23=Nobody's Fault But Mine
TTITLE24=Tell Me Where You Stayed Last Night
TTITLE25=You Gonna Quit Me
TTITLE26=Blues in G
EXTD=
EXTT0=
EXTT1=
EXTT2=
EXTT3=
EXTT4=
EXTT5=
EXTT6=
EXTT7=
EXTT8=
EXTT9=
EXTT10=
EXTT11=
EXTT12=
EXTT13=
EXTT14=
EXTT15=
EXTT16=
EXTT17=
EXTT18=
EXTT19=
EXTT20=
EXTT21=
EXTT22=
EXTT23=
EXTT24=
EXTT25=
EXTT26=
PLAYORDER=
